<svg width="403" height="141" viewBox="0 0 403 141" fill="none" xmlns="http://www.w3.org/2000/svg">
<path d="M42.336 113.352C40.096 113.352 37.952 113.032 35.904 112.392C33.92 111.816 32.192 110.536 30.72 108.552C30.912 107.016 31.36 104.776 32.064 101.832C32.832 98.888 33.76 95.56 34.848 91.848C35.936 88.072 37.088 84.2 38.304 80.232C39.52 76.264 40.704 72.488 41.856 68.904C43.072 65.256 44.128 62.088 45.024 59.4C45.984 56.648 46.688 54.664 47.136 53.448C47.328 52.936 47.648 52.168 48.096 51.144C48.544 50.12 49.12 49.064 49.824 47.976C50.528 46.888 51.328 45.992 52.224 45.288C53.184 44.52 54.208 44.136 55.296 44.136C56.384 44.136 57.6 44.584 58.944 45.48C56.96 49.96 54.944 54.952 52.896 60.456C50.912 65.896 48.992 71.528 47.136 77.352C45.344 83.112 43.68 88.744 42.144 94.248C40.672 99.688 39.456 104.68 38.496 109.224C39.008 109.416 39.712 109.544 40.608 109.608C41.568 109.736 42.464 109.8 43.296 109.8C47.456 109.8 51.424 108.776 55.2 106.728C58.976 104.744 62.432 102.088 65.568 98.76C68.768 95.368 71.552 91.592 73.92 87.432C76.288 83.208 78.112 78.888 79.392 74.472C80.672 70.056 81.312 65.832 81.312 61.8C81.312 56.616 80.416 52.424 78.624 49.224C76.896 45.96 74.496 43.592 71.424 42.12C68.352 40.584 64.832 39.816 60.864 39.816C56.704 39.816 52.96 40.584 49.632 42.12C46.304 43.592 43.68 45.64 41.76 48.264C39.904 50.824 38.976 53.768 38.976 57.096C38.976 57.8 39.04 58.568 39.168 59.4C39.296 60.168 39.52 60.936 39.84 61.704C37.088 61.704 35.104 61.128 33.888 59.976C32.736 58.76 32.16 57.288 32.16 55.56C32.16 53.32 32.96 51.048 34.56 48.744C36.224 46.44 38.496 44.328 41.376 42.408C44.32 40.424 47.712 38.856 51.552 37.704C55.392 36.488 59.552 35.88 64.032 35.88C70.304 35.88 75.328 37.096 79.104 39.528C82.88 41.896 85.6 45.128 87.264 49.224C88.992 53.256 89.856 57.768 89.856 62.76C89.856 68.264 88.96 73.544 87.168 78.6C85.44 83.592 83.008 88.2 79.872 92.424C76.8 96.648 73.216 100.328 69.12 103.464C65.088 106.6 60.768 109.032 56.16 110.76C51.616 112.488 47.008 113.352 42.336 113.352ZM94.9297 108.072C92.0498 108.072 90.0658 107.112 88.9778 105.192C87.9537 103.336 87.4417 101.288 87.4417 99.048C87.4417 97 87.7617 94.92 88.4017 92.808C89.0418 90.632 89.9058 88.616 90.9938 86.76C92.1458 84.904 93.3938 83.432 94.7378 82.344C96.1458 81.192 97.5538 80.616 98.9618 80.616C99.4098 80.616 99.9218 80.712 100.498 80.904C101.138 81.032 101.586 81.256 101.842 81.576C101.074 82.536 100.274 83.72 99.4418 85.128C98.6738 86.536 97.9378 88.04 97.2338 89.64C96.5938 91.176 96.0818 92.744 95.6978 94.344C95.3138 95.944 95.1218 97.416 95.1218 98.76C95.1218 100.04 95.3458 101.096 95.7938 101.928C96.3058 102.76 97.1698 103.176 98.3858 103.176C99.6018 103.176 101.042 102.504 102.706 101.16C104.434 99.752 106.066 98.152 107.602 96.36C105.554 94.504 104.082 92.488 103.186 90.312C102.29 88.072 101.842 85.384 101.842 82.248C101.842 80.904 102.162 79.368 102.802 77.64C103.506 75.912 104.594 74.408 106.066 73.128C107.602 71.848 109.65 71.208 112.21 71.208C114.962 71.208 116.882 71.976 117.97 73.512C119.122 75.048 119.698 76.872 119.698 78.984C119.698 81.352 119.058 84.008 117.778 86.952C116.562 89.896 115.09 92.68 113.362 95.304C114.13 95.688 115.026 95.88 116.05 95.88C117.01 95.88 118.162 95.656 119.506 95.208C120.85 94.76 122.162 94.024 123.442 93C124.722 91.912 125.746 90.472 126.514 88.68L128.242 89.928C126.834 93.192 124.946 95.592 122.578 97.128C120.274 98.6 118.002 99.336 115.762 99.336C114.93 99.336 114.098 99.272 113.266 99.144C112.434 98.952 111.666 98.728 110.962 98.472C108.786 101.032 106.29 103.272 103.474 105.192C100.658 107.112 97.8098 108.072 94.9297 108.072ZM110.098 93.288C111.634 91.048 112.946 88.648 114.034 86.088C115.122 83.528 115.666 81.16 115.666 78.984C115.666 77.512 115.442 76.456 114.994 75.816C114.546 75.112 113.874 74.76 112.978 74.76C111.762 74.76 110.514 75.624 109.234 77.352C107.954 79.08 107.314 81.256 107.314 83.88C107.314 85.224 107.538 86.856 107.986 88.776C108.498 90.696 109.202 92.2 110.098 93.288ZM135.161 110.376C131.833 110.376 129.081 109.32 126.905 107.208C124.793 105.16 123.736 101.992 123.736 97.704C123.736 94.568 124.345 91.496 125.561 88.488C126.777 85.48 128.409 82.792 130.457 80.424C132.505 77.992 134.777 76.072 137.273 74.664C139.833 73.256 142.425 72.552 145.049 72.552C147.737 72.552 149.657 73.224 150.809 74.568C152.025 75.912 152.633 77.48 152.633 79.272C152.633 81.064 152.185 82.824 151.289 84.552C150.457 86.216 149.305 87.048 147.833 87.048C146.617 87.048 145.625 86.44 144.857 85.224C145.497 84.776 146.169 83.944 146.873 82.728C147.577 81.512 147.929 79.944 147.929 78.024C147.929 77.512 147.801 77.128 147.545 76.872C147.289 76.552 146.809 76.392 146.105 76.392C144.505 76.392 142.809 77.128 141.017 78.6C139.289 80.008 137.657 81.864 136.121 84.168C134.649 86.408 133.433 88.808 132.473 91.368C131.577 93.864 131.129 96.168 131.129 98.28C131.129 100.072 131.577 101.736 132.473 103.272C133.433 104.744 135.257 105.48 137.945 105.48C140.377 105.48 142.905 104.776 145.529 103.368C148.153 101.96 150.617 100.008 152.921 97.512C155.225 94.952 157.081 91.912 158.489 88.392L160.409 90.12C158.873 94.024 156.729 97.512 153.977 100.584C151.289 103.592 148.281 105.96 144.953 107.688C141.689 109.48 138.425 110.376 135.161 110.376ZM165.017 109.416C162.201 109.416 159.929 108.584 158.201 106.92C156.473 105.256 155.609 102.728 155.609 99.336C155.609 96.712 156.089 93.448 157.049 89.544C158.073 85.64 159.353 81.608 160.889 77.448C160.441 77.32 159.897 77.224 159.257 77.16C158.681 77.032 158.105 76.84 157.529 76.584V73.608C158.553 73.736 159.385 73.832 160.025 73.896C160.729 73.96 161.433 74.024 162.137 74.088C163.481 70.696 164.921 67.432 166.457 64.296C168.057 61.096 169.625 58.248 171.161 55.752C172.761 53.256 174.265 51.304 175.673 49.896C177.081 48.424 178.329 47.688 179.417 47.688C180.057 47.688 180.665 47.944 181.241 48.456C181.817 48.904 182.105 49.576 182.105 50.472C182.105 51.752 181.433 53.576 180.089 55.944C178.809 58.312 177.209 61.096 175.289 64.296C173.369 67.432 171.513 70.792 169.721 74.376C170.233 74.376 170.745 74.376 171.257 74.376C171.769 74.376 172.249 74.376 172.697 74.376C175.513 74.376 178.041 74.344 180.281 74.28C182.585 74.152 184.921 73.96 187.289 73.704V76.872C183.769 77.192 180.537 77.448 177.593 77.64C174.649 77.832 171.833 77.96 169.145 78.024C168.953 78.024 168.761 78.024 168.569 78.024C168.377 78.024 168.185 78.024 167.993 78.024C166.649 81.16 165.465 84.392 164.441 87.72C163.481 90.984 163.001 94.184 163.001 97.32C163.001 99.944 163.417 101.8 164.249 102.888C165.081 103.976 166.393 104.52 168.185 104.52C171.385 104.52 174.649 103.08 177.977 100.2C181.369 97.256 184.313 93.288 186.809 88.296L188.153 89.256C186.489 93.032 184.409 96.456 181.913 99.528C179.481 102.6 176.825 105 173.945 106.728C171.065 108.52 168.089 109.416 165.017 109.416ZM190.273 108.072C187.394 108.072 185.41 107.112 184.322 105.192C183.297 103.336 182.785 101.288 182.785 99.048C182.785 97 183.105 94.92 183.745 92.808C184.386 90.632 185.25 88.616 186.338 86.76C187.49 84.904 188.738 83.432 190.082 82.344C191.49 81.192 192.898 80.616 194.306 80.616C194.754 80.616 195.266 80.712 195.842 80.904C196.482 81.032 196.93 81.256 197.186 81.576C196.418 82.536 195.618 83.72 194.786 85.128C194.018 86.536 193.282 88.04 192.578 89.64C191.938 91.176 191.426 92.744 191.042 94.344C190.658 95.944 190.466 97.416 190.466 98.76C190.466 100.04 190.69 101.096 191.138 101.928C191.65 102.76 192.514 103.176 193.73 103.176C194.946 103.176 196.386 102.504 198.049 101.16C199.778 99.752 201.41 98.152 202.946 96.36C200.898 94.504 199.426 92.488 198.53 90.312C197.634 88.072 197.186 85.384 197.186 82.248C197.186 80.904 197.506 79.368 198.146 77.64C198.85 75.912 199.938 74.408 201.41 73.128C202.946 71.848 204.994 71.208 207.554 71.208C210.306 71.208 212.226 71.976 213.314 73.512C214.466 75.048 215.042 76.872 215.042 78.984C215.042 81.352 214.402 84.008 213.122 86.952C211.906 89.896 210.434 92.68 208.706 95.304C209.474 95.688 210.37 95.88 211.394 95.88C212.354 95.88 213.506 95.656 214.85 95.208C216.194 94.76 217.506 94.024 218.786 93C220.066 91.912 221.09 90.472 221.858 88.68L223.586 89.928C222.178 93.192 220.29 95.592 217.922 97.128C215.618 98.6 213.346 99.336 211.106 99.336C210.274 99.336 209.442 99.272 208.609 99.144C207.778 98.952 207.01 98.728 206.306 98.472C204.13 101.032 201.634 103.272 198.818 105.192C196.002 107.112 193.154 108.072 190.273 108.072ZM205.442 93.288C206.978 91.048 208.29 88.648 209.378 86.088C210.466 83.528 211.01 81.16 211.01 78.984C211.01 77.512 210.786 76.456 210.338 75.816C209.89 75.112 209.218 74.76 208.322 74.76C207.106 74.76 205.858 75.624 204.578 77.352C203.298 79.08 202.658 81.256 202.658 83.88C202.658 85.224 202.882 86.856 203.33 88.776C203.842 90.696 204.546 92.2 205.442 93.288ZM227.912 107.88C224.904 107.88 222.792 106.888 221.576 104.904C220.424 102.856 219.848 100.456 219.848 97.704C219.848 94.568 220.424 90.888 221.576 86.664C222.728 82.44 224.232 78.024 226.088 73.416C228.008 68.744 230.088 64.2 232.328 59.784C234.632 55.304 236.936 51.272 239.24 47.688C241.544 44.104 243.656 41.256 245.576 39.144C247.56 36.968 249.16 35.88 250.376 35.88C251.208 35.88 251.912 36.328 252.488 37.224C253.064 38.056 253.512 39.08 253.832 40.296C254.216 41.448 254.408 42.536 254.408 43.56C254.408 45.288 253.96 47.56 253.064 50.376C252.232 53.128 251.016 56.168 249.416 59.496C247.88 62.824 246.024 66.248 243.848 69.768C241.736 73.224 239.368 76.52 236.744 79.656C234.184 82.792 231.432 85.512 228.488 87.816C228.232 89.416 227.976 91.016 227.72 92.616C227.528 94.152 227.432 95.56 227.432 96.84C227.432 99.144 227.816 100.84 228.584 101.928C229.352 102.952 230.344 103.464 231.56 103.464C233.16 103.464 234.792 102.728 236.456 101.256C238.184 99.72 239.816 97.8 241.352 95.496C242.952 93.128 244.328 90.696 245.48 88.2L247.784 89.448C245.032 95.144 241.96 99.656 238.568 102.984C235.176 106.248 231.624 107.88 227.912 107.88ZM230.216 81.864C232.392 79.496 234.44 76.936 236.36 74.184C238.344 71.368 240.136 68.52 241.736 65.64C243.4 62.76 244.84 59.976 246.056 57.288C247.272 54.6 248.2 52.2 248.84 50.088C249.544 47.912 249.928 46.184 249.992 44.904C249.992 44.84 249.992 44.808 249.992 44.808C249.992 44.744 249.992 44.68 249.992 44.616C249.48 44.616 248.648 45.352 247.496 46.824C246.408 48.232 245.096 50.184 243.56 52.68C242.024 55.176 240.424 58.024 238.76 61.224C237.16 64.424 235.592 67.816 234.056 71.4C232.584 74.92 231.304 78.408 230.216 81.864ZM250.868 107.88C248.052 107.88 245.94 107.048 244.532 105.384C243.123 103.72 242.419 101.704 242.419 99.336C242.419 97.864 242.675 96.008 243.188 93.768C243.7 91.528 244.404 89.192 245.3 86.76C246.26 84.264 247.348 81.928 248.564 79.752C249.78 77.576 251.092 75.816 252.5 74.472C253.908 73.064 255.316 72.36 256.724 72.36C257.492 72.36 258.164 72.616 258.74 73.128C259.316 73.576 259.604 74.248 259.604 75.144C259.604 75.976 259.092 77.224 258.068 78.888C257.108 80.552 255.956 82.472 254.612 84.648C253.332 86.824 252.18 89.096 251.156 91.464C250.196 93.768 249.716 95.976 249.716 98.088C249.716 100.136 250.068 101.512 250.772 102.216C251.54 102.856 252.628 103.176 254.036 103.176C256.212 103.176 258.58 102.088 261.14 99.912C263.7 97.736 266.356 93.928 269.108 88.488L270.548 90.024C268.308 95.656 265.46 100.04 262.004 103.176C258.548 106.312 254.836 107.88 250.868 107.88ZM262.196 64.584C260.98 64.584 259.86 64.296 258.836 63.72C257.876 63.08 257.396 62.12 257.396 60.84C257.396 59.304 258.228 57.992 259.892 56.904C261.556 55.816 263.284 55.272 265.076 55.272C266.228 55.272 267.188 55.528 267.956 56.04C268.788 56.552 269.204 57.48 269.204 58.824C269.204 60.168 268.468 61.48 266.996 62.76C265.524 63.976 263.924 64.584 262.196 64.584ZM276.801 112.008C273.153 112.008 270.369 110.856 268.449 108.552C266.593 106.312 265.665 103.208 265.665 99.24C265.665 96.04 266.209 92.296 267.297 88.008C268.385 83.72 269.825 79.24 271.617 74.568C273.409 69.832 275.425 65.224 277.665 60.744C279.905 56.2 282.177 52.104 284.481 48.456C286.785 44.808 288.961 41.896 291.009 39.72C293.057 37.544 294.817 36.456 296.289 36.456C297.569 36.456 298.529 37.192 299.169 38.664C299.809 40.136 300.129 41.672 300.129 43.272C300.129 45 299.745 47.144 298.977 49.704C298.209 52.264 297.121 54.984 295.713 57.864C294.305 60.68 292.673 63.496 290.817 66.312C288.961 69.128 286.913 71.688 284.673 73.992C282.497 76.296 280.225 78.12 277.857 79.464C277.409 80.296 276.833 81.736 276.129 83.784C275.489 85.832 274.881 88.168 274.305 90.792C273.793 93.352 273.537 95.88 273.537 98.376C273.537 100.936 273.921 103.016 274.689 104.616C275.521 106.216 276.865 107.016 278.721 107.016C280.385 107.016 282.145 106.344 284.001 105C285.857 103.72 287.393 102.088 288.609 100.104C286.241 98.824 284.449 97.032 283.233 94.728C282.017 92.424 281.409 89.992 281.409 87.432C281.409 84.36 282.241 81.864 283.905 79.944C285.569 77.96 287.649 76.968 290.145 76.968C292.193 76.968 293.889 77.768 295.233 79.368C296.577 80.904 297.249 83.368 297.249 86.76C297.249 88.488 297.025 90.344 296.577 92.328C296.193 94.248 295.553 96.232 294.657 98.28C294.849 98.344 295.009 98.376 295.137 98.376C295.329 98.376 295.521 98.376 295.713 98.376C298.273 98.376 300.513 97.576 302.433 95.976C304.353 94.312 306.049 92.232 307.521 89.736C308.993 87.24 310.241 84.648 311.265 81.96C312.289 79.272 313.153 76.872 313.857 74.76C313.601 74.44 313.377 74.12 313.185 73.8C313.057 73.416 312.993 72.936 312.993 72.36C312.993 70.504 313.537 68.84 314.625 67.368C315.713 65.896 316.769 65.16 317.793 65.16C318.625 65.16 319.137 65.576 319.329 66.408C319.585 67.24 319.713 67.816 319.713 68.136C319.713 68.648 319.521 69.288 319.137 70.056C318.817 70.824 318.657 71.4 318.657 71.784C318.657 72.36 319.169 73 320.193 73.704C321.281 74.344 322.497 75.144 323.841 76.104C325.249 77 326.465 78.152 327.489 79.56C328.577 80.968 329.121 82.728 329.121 84.84C329.121 86.696 328.737 88.616 327.969 90.6C327.201 92.584 326.401 94.44 325.569 96.168C324.801 97.896 324.417 99.4 324.417 100.68C324.417 101.512 324.641 102.088 325.089 102.408C325.601 102.664 326.177 102.792 326.817 102.792C328.353 102.792 329.921 102.312 331.521 101.352C333.185 100.392 334.753 99.176 336.225 97.704C337.761 96.168 339.105 94.568 340.257 92.904C341.473 91.24 342.401 89.704 343.041 88.296L344.769 89.448C343.489 92.264 341.793 95.08 339.681 97.896C337.633 100.648 335.297 102.952 332.673 104.808C330.049 106.664 327.265 107.592 324.321 107.592C321.953 107.592 320.001 106.952 318.465 105.672C316.993 104.456 316.257 102.76 316.257 100.584C316.257 98.792 316.673 96.84 317.505 94.728C318.401 92.616 319.265 90.568 320.097 88.584C320.993 86.536 321.441 84.744 321.441 83.208C321.441 81.608 320.929 80.36 319.905 79.464C318.945 78.568 317.857 77.736 316.641 76.968C315.809 79.592 314.817 82.344 313.665 85.224C312.577 88.104 311.201 90.824 309.537 93.384C307.937 95.88 305.953 97.928 303.585 99.528C301.281 101.064 298.529 101.832 295.329 101.832C294.945 101.832 294.529 101.832 294.081 101.832C293.697 101.768 293.281 101.704 292.833 101.64C291.041 104.52 288.801 106.952 286.113 108.936C283.489 110.984 280.385 112.008 276.801 112.008ZM290.241 96.936C290.753 95.72 291.169 94.472 291.489 93.192C291.809 91.848 291.969 90.376 291.969 88.776C291.969 86.792 291.713 85.192 291.201 83.976C290.753 82.696 290.081 82.056 289.185 82.056C288.353 82.056 287.617 82.632 286.977 83.784C286.401 84.936 286.113 86.344 286.113 88.008C286.113 89.544 286.433 91.144 287.073 92.808C287.713 94.472 288.769 95.848 290.241 96.936ZM279.681 73.416C281.217 71.944 282.721 70.28 284.193 68.424C285.665 66.504 287.041 64.488 288.321 62.376C289.601 60.264 290.721 58.216 291.681 56.232C292.705 54.184 293.537 52.328 294.177 50.664C294.817 48.936 295.233 47.528 295.425 46.44C295.489 46.248 295.521 46.024 295.521 45.768C295.521 45.448 295.457 45.32 295.329 45.384C294.753 45.512 293.825 46.408 292.545 48.072C291.265 49.736 289.825 51.912 288.225 54.6C286.625 57.288 285.057 60.264 283.521 63.528C282.049 66.792 280.769 70.088 279.681 73.416ZM351.824 109.224C347.728 109.224 344.56 108.104 342.32 105.864C340.143 103.688 339.055 100.936 339.055 97.608C339.055 94.792 339.759 91.816 341.168 88.68C342.64 85.48 344.592 82.504 347.023 79.752C349.456 76.936 352.144 74.664 355.088 72.936C358.032 71.208 360.976 70.344 363.92 70.344C365.584 70.344 367.152 70.792 368.624 71.688C370.16 72.52 370.928 74.216 370.928 76.776C370.928 79.208 370.224 81.48 368.816 83.592C367.408 85.704 365.52 87.592 363.152 89.256C360.784 90.92 358.16 92.296 355.28 93.384C352.464 94.408 349.616 95.08 346.736 95.4C346.672 95.656 346.608 95.944 346.544 96.264C346.544 96.52 346.544 96.968 346.544 97.608C346.544 97.928 346.576 98.504 346.64 99.336C346.768 100.104 347.056 100.936 347.504 101.832C347.952 102.728 348.688 103.496 349.712 104.136C350.736 104.776 352.144 105.096 353.936 105.096C356.624 105.096 359.312 104.36 362 102.888C364.752 101.352 367.312 99.336 369.68 96.84C372.112 94.344 374.128 91.56 375.728 88.488L377.648 90.024C375.92 93.864 373.68 97.224 370.928 100.104C368.24 102.984 365.232 105.224 361.904 106.824C358.64 108.424 355.28 109.224 351.824 109.224ZM347.792 91.848C349.456 91.656 351.312 91.08 353.359 90.12C355.408 89.16 357.36 87.944 359.216 86.472C361.136 85 362.704 83.4 363.92 81.672C365.136 79.88 365.744 78.088 365.744 76.296C365.744 75.592 365.616 75.112 365.359 74.856C365.104 74.6 364.688 74.472 364.112 74.472C362.64 74.472 361.104 75.016 359.504 76.104C357.904 77.128 356.336 78.504 354.799 80.232C353.264 81.896 351.888 83.752 350.672 85.8C349.456 87.848 348.496 89.864 347.792 91.848Z" fill="white"/>
</svg>
